HIERARCHY
ROOT Hips
{
    OFFSET 0.000000 0.000000 0.000000
    CHANNELS 6 Xposition Yposition Zposition Zrotation Xrotation Yrotation
    JOINT Spine
    {
        OFFSET -0.000000 8.250426 0.000000
        CHANNELS 3 Zrotation Xrotation Yrotation
        JOINT Spine1
        {
            OFFSET -0.000000 26.973461 0.000000
            CHANNELS 3 Zrotation Xrotation Yrotation
            JOINT Neck
            {
                OFFSET -0.000000 26.862686 2.442063
                CHANNELS 3 Zrotation Xrotation Yrotation
                JOINT Head
                {
                    OFFSET -0.000000 14.086093 -2.012299
                    CHANNELS 3 Zrotation Xrotation Yrotation
                    End Site
                    {
                        OFFSET -0.000000 25.153738 0.000000
                    }
                }
            }
            JOINT LeftShoulder
            {
                OFFSET 4.034606 23.897446 -0.313550
                CHANNELS 3 Zrotation Xrotation Yrotation
                JOINT LeftArm
                {
                    OFFSET 14.610420 0.000000 0.000000
                    CHANNELS 3 Zrotation Xrotation Yrotation
                    JOINT LeftForeArm
                    {
                        OFFSET 28.890345 0.000000 0.000000
                        CHANNELS 3 Zrotation Xrotation Yrotation
                        JOINT LeftHand
                        {
                            OFFSET 28.816763 0.000000 0.000000
                            CHANNELS 3 Zrotation Xrotation Yrotation
                            End Site
                            {
                                OFFSET 15.092243 0.000000 0.000000
                            }
                        }
                    }
                }
            }
            JOINT RightShoulder
            {
                OFFSET -4.014012 23.897446 -0.313550
                CHANNELS 3 Zrotation Xrotation Yrotation
                JOINT RightArm
                {
                    OFFSET -14.610420 0.000000 0.000000
                    CHANNELS 3 Zrotation Xrotation Yrotation
                    JOINT RightForeArm
                    {
                        OFFSET -28.890345 0.000000 0.000000
                        CHANNELS 3 Zrotation Xrotation Yrotation
                        JOINT RightHand
                        {
                            OFFSET -28.816763 0.000000 0.000000
                            CHANNELS 3 Zrotation Xrotation Yrotation
                            End Site
                            {
                                OFFSET -15.092243 0.000000 0.000000
                            }
                        }
                    }
                }
            }
        }
    }
    JOINT LeftUpLeg
    {
        OFFSET 10.061496 0.000000 0.000000
        CHANNELS 3 Zrotation Xrotation Yrotation
        JOINT LeftLeg
        {
            OFFSET -0.000000 -36.089622 0.000000
            CHANNELS 3 Zrotation Xrotation Yrotation
            JOINT LeftFoot
            {
                OFFSET -0.000000 -47.113575 0.000000
                CHANNELS 3 Zrotation Xrotation Yrotation
                JOINT LeftToeBase
                {
                    OFFSET -0.000000 -6.539971 15.092243
                    CHANNELS 3 Zrotation Xrotation Yrotation
                    End Site
                    {
                        OFFSET -0.000000 0.000000 4.024598
                    }
                }
            }
        }
    }
    JOINT RightUpLeg
    {
        OFFSET -10.061496 0.000000 0.000000
        CHANNELS 3 Zrotation Xrotation Yrotation
        JOINT RightLeg
        {
            OFFSET -0.000000 -36.089622 0.000000
            CHANNELS 3 Zrotation Xrotation Yrotation
            JOINT RightFoot
            {
                OFFSET -0.000000 -47.113575 0.000000
                CHANNELS 3 Zrotation Xrotation Yrotation
                JOINT RightToeBase
                {
                    OFFSET -0.000000 -6.539971 15.092243
                    CHANNELS 3 Zrotation Xrotation Yrotation
                    End Site
                    {
                        OFFSET -0.000000 0.000000 4.024598
                    }
                }
            }
        }
    }
}
MOTION
Frames:    8
Frame Time:    0.004000
-0.801041    101.709961    -60.008408    -0.060488    1.708527    -4.359174    0.207221    3.834225    2.178077    -1.765449    -2.067259    2.153191    9.482719    28.182421    14.228754    -10.853158    0.521953    14.463158    -3.172413    12.437676    8.185634    -48.834152    3.650637    -12.433807    5.338873    -23.867512    -133.062454    1.031537    -12.248727    -10.345187    1.949675    26.661091    -3.629386    50.206623    31.906502    11.568659    -26.877565    -47.740295    113.097588    13.748438    -9.915142    9.085822    5.044825    -6.400349    -0.274695    -8.078878    31.144020    -13.984826    -16.851259    11.239134    22.338650    0.000000    0.000000    0.000000    -6.761626    0.374999    -6.275963    3.411857    23.582874    -4.708766    5.414072    17.533115    1.114817    0.000000    0.000000    0.000000    
-0.778533    102.585670    -59.694302    -0.065190    1.767708    -4.403780    0.075753    3.878532    2.169687    -1.549695    -2.367141    2.140222    9.491647    28.885498    14.153415    -10.967047    0.217419    14.409709    -3.305052    12.202008    8.000030    -48.761250    3.297052    -11.886659    5.123071    -23.724665    -133.173615    1.622553    -12.612349    -10.564059    1.966004    26.653862    -3.596954    49.973835    31.246847    11.170484    -26.687021    -47.516514    113.216835    13.527408    -9.842223    9.112421    5.314981    -7.398332    -0.016377    -8.533849    33.251820    -13.945015    -15.213764    11.644590    22.151768    0.000000    0.000000    0.000000    -6.727628    -0.705518    -6.900051    2.737484    25.839626    -3.730165    4.547706    16.960367    -0.163154    0.000000    0.000000    0.000000    
-0.755427    103.436600    -59.403866    -0.060568    1.845912    -4.454713    -0.096114    3.905053    2.153969    -1.307670    -2.600532    2.121019    9.435683    29.575115    14.110070    -11.079114    -0.259095    14.363527    -3.625671    12.167252    7.969824    -48.486073    2.710731    -11.725591    4.917429    -23.473318    -133.212738    2.156168    -12.855358    -10.766957    1.892142    26.592215    -3.518935    49.769814    30.589851    10.785161    -26.566822    -47.340889    113.200951    13.657716    -9.791632    9.248637    5.543220    -8.624739    0.358181    -8.970572    35.733971    -13.868664    -15.832915    11.711640    22.923786    0.000000    0.000000    0.000000    -6.692905    -1.868003    -7.316531    2.124908    28.154673    -2.924724    2.594005    16.806580    -0.755464    0.000000    0.000000    0.000000    
-0.731474    104.260757    -59.106167    -0.045939    1.815789    -4.499478    -0.220912    4.068093    2.140849    -1.207315    -2.830314    2.103157    9.520555    30.125362    14.060538    -11.216420    -0.573487    14.327456    -3.646023    12.064311    7.900133    -48.536198    2.150836    -11.517588    4.673393    -23.053135    -133.256683    2.719273    -13.009005    -10.890424    1.961265    26.567865    -3.505393    49.500645    29.875134    10.377604    -26.313007    -47.072327    113.269836    13.656171    -9.780702    9.415741    5.754124    -9.688592    0.663164    -9.320354    38.112034    -14.242859    -17.096924    11.771660    23.858612    0.000000    0.000000    0.000000    -6.698443    -2.924405    -7.608857    1.509497    30.512053    -2.042164    0.782666    16.917126    -1.327103    0.000000    0.000000    0.000000    
-0.705923    105.061684    -58.820881    -0.035814    1.751850    -4.528420    -0.346427    4.284339    2.121471    -1.098261    -3.037261    2.079403    9.707737    30.730310    13.986217    -11.614770    -1.004250    14.236254    -3.925024    12.228512    7.968025    -48.249592    1.606711    -11.670485    4.552665    -22.924109    -133.146515    3.280810    -13.231589    -11.068414    1.934053    26.444548    -3.449990    49.338463    29.280699    9.962270    -26.147547    -46.874519    113.217751    13.658826    -9.829879    9.486812    5.957181    -10.706882    0.679025    -10.003565    40.465622    -13.739758    -17.056280    12.064450    23.908018    0.000000    0.000000    0.000000    -6.686656    -3.971473    -7.816786    0.888901    32.934525    -1.407848    -0.454634    17.051662    -1.550035    0.000000    0.000000    0.000000    
-0.680579    105.828941    -58.563866    -0.011653    1.650463    -4.591641    -0.503134    4.573266    2.124541    -0.982609    -3.218600    2.076859    9.763221    31.268032    13.916331    -11.895360    -1.596699    14.123838    -4.073246    12.250344    7.922574    -48.024715    0.814965    -11.660313    4.335540    -22.418676    -133.104874    3.847047    -13.258382    -11.202477    1.935068    26.454016    -3.458143    49.028416    28.609962    9.764547    -25.935101    -46.657391    113.167847    13.527666    -9.957437    9.445228    6.170119    -11.739004    0.770689    -10.682746    42.902283    -13.435605    -17.574436    12.249206    23.904085    0.000000    0.000000    0.000000    -6.667242    -5.040673    -7.780168    0.314611    35.433132    -0.907634    -1.088741    17.120159    -1.665023    0.000000    0.000000    0.000000    
-0.655271    106.552330    -58.292622    0.016250    1.472270    -4.611597    -0.642823    4.923542    2.108320    -0.921298    -3.351525    2.053692    9.779996    31.507717    13.890818    -11.900118    -1.735434    14.109343    -4.060121    11.827049    7.697935    -48.051132    0.669178    -11.071823    4.298823    -22.507290    -133.092789    4.322744    -13.486883    -11.309774    1.917614    26.397676    -3.446030    48.788227    27.876740    9.512415    -25.685825    -46.364792    113.108154    13.691496    -10.014203    9.499959    6.356428    -12.695586    0.822774    -11.408767    45.388577    -13.614319    -17.992920    12.238958    23.915535    0.000000    0.000000    0.000000    -6.669830    -6.003072    -7.772814    -0.286772    37.986794    0.122982    -1.074854    16.904797    -2.113606    0.000000    0.000000    0.000000    
-0.633430    107.284256    -58.016502    0.060119    1.263896    -4.616580    -0.812495    5.326459    2.090744    -0.859830    -3.469690    2.026864    9.875910    31.697985    13.853133    -12.045055    -1.835345    14.071641    -4.109143    11.974889    7.670091    -47.959862    -0.037088    -11.151323    4.193860    -22.187029    -132.976547    4.823479    -13.463265    -11.342274    1.844999    26.306551    -3.442701    48.608437    27.324518    9.268442    -25.538511    -46.190521    112.890366    13.447837    -10.231133    9.480414    6.550963    -13.674297    0.776248    -12.379031    47.931671    -13.290707    -18.237614    12.133937    23.474758    0.000000    0.000000    0.000000    -6.684209    -7.029343    -7.645418    -0.843363    40.715626    0.715048    -0.754450    16.596128    -2.011431    0.000000    0.000000    0.000000    
